<svg fill="none" version="1.1" viewBox="0 0 197.65 37.76" xmlns="http://www.w3.org/2000/svg">
 <circle cx="15.5" cy="18.03" r="13.5" stroke="url(#paint0_radial)" stroke-width="4"/>
 <defs>
  <radialGradient id="paint0_radial" cx="0" cy="0" r="1" gradientTransform="matrix(-28.675 31 -31 -28.675 44.175 6.7928)" gradientUnits="userSpaceOnUse">
   <stop stop-color="#fff" offset="0"/>
   <stop stop-color="#7012CE" offset="1"/>
  </radialGradient>
 </defs>
 <g transform="translate(-2.1444 .5)" fill="#000" shape-rendering="auto" aria-label="reQRdo">
  <g opacity="1">
   <path d="m49.877 10.16c1.6-1.84 3.96-2.76 7.08-2.76v8c-0.72-0.10667-1.3867-0.16-2-0.16-3.0933 0-4.64 1.5733-4.64 4.72v9.72h-9.04v-21.88h8.6z" color="#000000" color-rendering="auto" dominant-baseline="auto" image-rendering="auto" solid-color="#000000" stop-color="#000000" style="font-feature-settings:normal;font-variant-alternates:normal;font-variant-caps:normal;font-variant-east-asian:normal;font-variant-ligatures:normal;font-variant-numeric:normal;font-variant-position:normal;font-variation-settings:normal;inline-size:0;isolation:auto;mix-blend-mode:normal;shape-margin:0;shape-padding:0;text-decoration-color:#000000;text-decoration-line:none;text-decoration-style:solid;text-indent:0;text-orientation:mixed;text-transform:none;white-space:normal"/>
   <path d="m56.957 6.9004c-2.7716 0-4.9157 0.86765-6.5801 2.3203v-1.9199h-9.5996v22.879h10.039v-10.219c0-1.4914 0.36107-2.5216 1.0176-3.1895 0.65651-0.66783 1.6612-1.0312 3.123-1.0312 0.58435 0 1.2261 0.05065 1.9258 0.1543l0.57422 0.08594v-9.0801zm-0.5 1.082v6.8789c-0.51612-0.05773-1.035-0.12109-1.5-0.12109-1.6314 0-2.9458 0.42458-3.8359 1.3301-0.89016 0.9055-1.3047 2.2354-1.3047 3.8906v9.2188h-8.0391v-20.879h7.5996v3.1953l0.87695-1.0078c1.3992-1.6091 3.473-2.4022 6.2031-2.5059z" color="#000000" color-rendering="auto" dominant-baseline="auto" image-rendering="auto" solid-color="#000000" stop-color="#000000" style="font-feature-settings:normal;font-variant-alternates:normal;font-variant-caps:normal;font-variant-east-asian:normal;font-variant-ligatures:normal;font-variant-numeric:normal;font-variant-position:normal;font-variation-settings:normal;inline-size:0;isolation:auto;mix-blend-mode:normal;shape-margin:0;shape-padding:0;text-decoration-color:#000000;text-decoration-line:none;text-decoration-style:solid;text-indent:0;text-orientation:mixed;text-transform:none;white-space:normal"/>
   <path d="m82.526 18.72c0 0.13333-0.04 0.84-0.12 2.12h-15.2c0.32 0.82667 0.85333 1.4667 1.6 1.92 0.74667 0.42667 1.68 0.64 2.8 0.64 0.96 0 1.76-0.12 2.4-0.36 0.66667-0.24 1.3867-0.65333 2.16-1.24l4.72 4.76c-2.1333 2.3467-5.32 3.52-9.56 3.52-2.64 0-4.96-0.48-6.96-1.44-2-0.98667-3.5467-2.3467-4.64-4.08s-1.64-3.68-1.64-5.84c0-2.1867 0.53333-4.1333 1.6-5.84 1.0933-1.7333 2.5733-3.08 4.44-4.04 1.8933-0.96 4.0133-1.44 6.36-1.44 2.2133 0 4.2267 0.44 6.04 1.32 1.84 0.88 3.2933 2.1733 4.36 3.88 1.0933 1.7067 1.64 3.7467 1.64 6.12zm-11.96-5.16c-0.93333 0-1.7067 0.25333-2.32 0.76s-1.0133 1.2267-1.2 2.16h7.04c-0.18667-0.90667-0.58667-1.6133-1.2-2.12-0.61333-0.53333-1.3867-0.8-2.32-0.8z" color="#000000" color-rendering="auto" dominant-baseline="auto" image-rendering="auto" solid-color="#000000" stop-color="#000000" style="font-feature-settings:normal;font-variant-alternates:normal;font-variant-caps:normal;font-variant-east-asian:normal;font-variant-ligatures:normal;font-variant-numeric:normal;font-variant-position:normal;font-variation-settings:normal;inline-size:0;isolation:auto;mix-blend-mode:normal;shape-margin:0;shape-padding:0;text-decoration-color:#000000;text-decoration-line:none;text-decoration-style:solid;text-indent:0;text-orientation:mixed;text-transform:none;white-space:normal"/>
   <path d="m70.486 6.9004c-2.4148 0-4.6183 0.49646-6.5859 1.4941h-4e-3c-1.9402 0.99782-3.4932 2.412-4.6328 4.2187h-2e-3v2e-3c-1.1175 1.7881-1.6758 3.8375-1.6758 6.1055 0 2.2444 0.57346 4.2929 1.7168 6.1055 1.1439 1.8135 2.77 3.2396 4.8418 4.2617l2e-3 2e-3h2e-3c2.0774 0.99714 4.4771 1.4902 7.1777 1.4902 4.3322 0 7.6854-1.2149 9.9297-3.6836l0.31836-0.35156-5.1602-5.2051h6.461l0.0293-0.46875c0.08007-1.2811 0.12109-1.9171 0.12109-2.1504 0-2.4475-0.56721-4.5906-1.7148-6.3848l-2e-3 -0.0039c-1.1142-1.7813-2.6469-3.1452-4.5644-4.0626h-2e-3c-1.8847-0.91435-3.9769-1.3691-6.2558-1.3691zm0 1c2.1471 0 4.0789 0.42442 5.8203 1.2695h2e-3l2e-3 0.00195c1.7604 0.84194 3.1317 2.0635 4.1504 3.6934l4e-3 4e-3c1.0365 1.618 1.5605 3.555 1.5605 5.8516 0 0.02585-0.04397 0.81172-0.0918 1.6191h-15.457l0.26367 0.67969c0.35615 0.92006 0.97181 1.6611 1.8066 2.168l0.0059 0.0039 0.0039 2e-3c0.84017 0.4801 1.8653 0.70703 3.0488 0.70703 0.99933 0 1.8544-0.12307 2.5703-0.39062l0.0059-2e-3c0.60487-0.21838 1.2443-0.62994 1.8965-1.0859l4.0781 4.1113c-2.0158 1.9982-4.901 3.0469-8.8301 3.0469-2.5777 0-4.8185-0.46701-6.7402-1.3887l-0.0039-2e-3c-1.9262-0.95107-3.3916-2.2445-4.4336-3.8965-1.0433-1.6541-1.5625-3.4966-1.5625-5.5723 0-2.1047 0.50827-3.9493 1.5234-5.5742v-2e-3c1.0467-1.6589 2.4502-2.9375 4.2422-3.8594 1.819-0.92232 3.8563-1.3848 6.1348-1.3848zm0.08008 5.1602c-1.0238 0-1.9293 0.28707-2.6387 0.87305-0.71035 0.58681-1.1691 1.4297-1.373 2.4492l-0.11914 0.59766h8.2637l-0.12305-0.60156c-0.20445-0.99302-0.66595-1.8165-1.3711-2.4004-0.70715-0.61187-1.6133-0.91797-2.6387-0.91797zm0 1c0.8381 0 1.4717 0.22485 1.9902 0.67578l0.0098 0.0098c0.34981 0.28898 0.50371 0.77975 0.69336 1.2344h-5.3965c0.1906-0.4743 0.34957-0.98494 0.70117-1.2754 0.51732-0.42736 1.1591-0.64453 2.002-0.64453zm-2.3281 7.2793h7.707l-0.08203 0.0625c-0.74437 0.5647-1.4249 0.95108-2.0273 1.168h-2e-3l-0.0039 2e-3c-0.56304 0.21114-1.3063 0.32812-2.2246 0.32812-1.0533 0-1.8926-0.20124-2.5449-0.57227-0.38846-0.23665-0.57034-0.6427-0.82227-0.98828z" color="#000000" color-rendering="auto" dominant-baseline="auto" image-rendering="auto" solid-color="#000000" stop-color="#000000" style="font-feature-settings:normal;font-variant-alternates:normal;font-variant-caps:normal;font-variant-east-asian:normal;font-variant-ligatures:normal;font-variant-numeric:normal;font-variant-position:normal;font-variation-settings:normal;inline-size:0;isolation:auto;mix-blend-mode:normal;shape-margin:0;shape-padding:0;text-decoration-color:#000000;text-decoration-line:none;text-decoration-style:solid;text-indent:0;text-orientation:mixed;text-transform:none;white-space:normal"/>
  </g>
  <path d="m100.3 0.53906c-3.0827 0-5.8755 0.64442-8.3516 1.9375-2.474 1.292-4.4297 3.1077-5.8359 5.4238-1.4083 2.2929-2.1113 4.8993-2.1113 7.7793 0 2.4426 0.50873 4.6991 1.5312 6.7441l4e-3 4e-3c1.0466 2.038 2.4986 3.7669 4.3418 5.1699l4e-3 4e-3c1.8054 1.3473 3.8982 2.258 6.2422 2.7598 1.6717 1.7404 3.1811 3.116 4.5195 4.0801 1.3689 1.013 2.7494 1.7346 4.1445 2.1543 1.3914 0.44524 2.9496 0.66406 4.6719 0.66406 1.7402 0 3.3462-0.31984 4.8008-0.96289h2e-3c1.4542-0.61672 2.7076-1.5475 3.7402-2.7754l0.27125-0.32245-0.27344-0.32227-4.4316-5.2148-0.38281 0.38477c-1.1319 1.1319-2.283 1.6523-3.5254 1.6523-0.44527 0-0.84109-0.07879-1.2012-0.23633l-6e-3 -0.0039-8e-3 -0.0039c-0.14817-0.05927-0.32422-0.24494-0.48633-0.36133 2.4946-1.1547 4.5857-2.7679 6.1113-4.9688v-2e-3h2e-3c1.6834-2.4562 2.5273-5.2883 2.5273-8.4434 0-2.8803-0.70468-5.4862-2.1133-7.7793v-0.00195c-1.4062-2.3155-3.3624-4.1301-5.8359-5.4219-2.4761-1.2931-5.2689-1.9375-8.3516-1.9375zm0 8.6406c1.09 0 2.0411 0.26631 2.8945 0.80273l8e-3 0.00586 6e-3 0.00391c0.8772 0.5117 1.5678 1.2458 2.0898 2.2402l2e-3 2e-3v2e-3c0.51517 0.95676 0.78125 2.0961 0.78125 3.4434 0 1.345-0.26526 2.4973-0.78125 3.4824-0.5216 0.96868-1.214 1.7095-2.0977 2.25-0.85407 0.51244-1.8086 0.76758-2.9023 0.76758-1.0909 0-2.0579-0.25693-2.9395-0.76953-0.85355-0.5382-1.5349-1.2756-2.0566-2.2422v-2e-3c-0.51721-0.98585-0.7832-2.1398-0.7832-3.4863 0-1.3473 0.26412-2.4866 0.7793-3.4434l4e-3 -4e-3c0.5236-0.99733 1.2036-1.7335 2.0547-2.2441l2e-3 -0.00195c0.88266-0.5394 1.8494-0.80664 2.9395-0.80664z" color="#000000" color-rendering="auto" dominant-baseline="auto" image-rendering="auto" opacity="1" solid-color="#000000" stop-color="#000000" style="font-feature-settings:normal;font-variant-alternates:normal;font-variant-caps:normal;font-variant-east-asian:normal;font-variant-ligatures:normal;font-variant-numeric:normal;font-variant-position:normal;font-variation-settings:normal;inline-size:0;isolation:auto;mix-blend-mode:normal;shape-margin:0;shape-padding:0;text-decoration-color:#000000;text-decoration-line:none;text-decoration-style:solid;text-indent:0;text-orientation:mixed;text-transform:none;white-space:normal"/>
  <path transform="translate(-27.825,7.652)" d="m152.24-6.4727v6.1562h-6.1875v0.87891h0.88281v0.87891h-0.88281v0.87891h1.7676v-1.7578h0.88281v0.87891h0.88477v0.87891h0.88476v-0.87891h0.88477v-0.87891h1.7656v0.87891h-1.7656v0.87891h0.88281v0.87891h-0.88281v-0.87891h-0.88477v2.6387h0.88477v-0.88086h1.7656v-1.7578h1.7676v2.6387h0.88477v-0.88086h0.71679v-1.7578h-0.71679v-1.7578h0.88281v-1.7578h-0.88281v0.87891h-0.88477v0.87891h-0.88281v-0.87891h-0.88477v-1.7598h1.7676v-0.87891h-0.88281v-0.87891h-0.88477v-0.88086h0.88477v-0.87891h-0.88477v-0.87891zm2.6504 4.3965v0.88086h0.88477v-0.88086zm0 0.88086h-0.88281v0.87891h0.88281zm0 6.1543h-0.88281v1.7578h0.88281zm0 1.7578v0.88086h0.88477v-0.88086zm0.88477 0.88086v0.87891h0.88281v0.87891h1.7676v-0.87891h-0.88281v-1.1094h-0.88477v0.23047zm2.6504 0.87891h0.88476v-0.87891h-0.88476zm0.88476-0.87891h1.7656v1.7578h1.7676v-0.87891h-0.88282v-1.7598h0.88282v-0.87891h0.88476v0.87891h-0.88476v0.88086h1.7676v0.87891h-0.88282v1.7598h-0.88476v0.87891h2.6543v-0.87891h-0.88671v-0.88086h1.7695v-0.87891h0.88281v-1.7598h-2.6523v-0.87891h1.7695v-0.87891h0.88281v-0.88086h0.88476v-0.87891h0.88282v-1.7578h0.88476v-0.87891h0.88282v1.7578h-0.88282v0.87891h1.7676v-1.7578h0.88281v-0.87891h0.0176c-0.1143-0.29966-0.24253-0.59328-0.38476-0.87891h-3.168v-3.6816c-0.28036-0.19865-0.57766-0.38252-0.88282-0.55859v0.72266h-0.88476v0.87891h-0.88281v0.87891h-0.88282v-0.87891h0.88282v-0.87891h-1.7695v-0.88086h-0.88282v-0.87891h1.7695v-0.11523c-1.0957-0.34163-2.2743-0.56969-3.5371-0.68164v0.79688h-0.88476v0.87891h0.88476v0.88086h-0.88476v-0.88086h-0.88281v-0.87891h-0.88282v-0.87891h-0.88476v0.87891h-0.88281v-0.87891h-0.88477v0.87891h-0.88281v2.6387h0.88281v-0.87891h0.88477v-0.88086h0.88281v0.88086h-0.88281v0.87891h0.88281v0.87891h0.88476v-1.7578h0.88282v2.6387h0.88281v-1.7598h0.88476v1.7598h0.88282v-2.6387h0.88476v2.6387h0.88282v2.6367h2.6523v-0.87891h-1.7656v-1.7578h0.88282v0.87891h0.88281v-1.7598h0.88476v4.3965h-0.88476v0.87891h-0.88281v-0.87891h-1.7695v0.87891h0.88671v1.7598h-0.88671v-0.88086h-1.7676v-2.6367h0.88476v-0.87891h-0.88476v-0.87891h-0.88282v-0.87891h-0.88476v2.6367h0.88476v0.87891h-0.31836c0.1181 0.074046 0.2355 0.14783 0.33204 0.23633l4e-3 0.00391 6e-3 0.00391c0.52456 0.45899 0.78906 1.086 0.78906 2.0234 0 0.93551-0.26754 1.5795-0.79687 2.0664-0.51601 0.44872-1.3396 0.71289-2.543 0.71289h-0.12305zm1.7656-6.1562h-0.88281v0.41406c0.33305 0.039067 0.62299 0.10717 0.88281 0.19727zm-0.88281 0v-0.87891h-1.7676v-2.6387h-0.88281v3.5176zm-2.6504 0h-0.88477v0.36719h0.88477zm0-3.5176v-0.87891h-0.88477v0.87891zm5.3008 1.7598h0.88476v-0.87891h-0.88476zm-2.6504-0.87891h-0.88282v0.87891h0.88282zm0-4.3984h0.88281v-0.83398c-0.29346-0.013646-0.58098-0.035017-0.88281-0.037109zm6.1875 1.7598h0.88281v-1.1855c-0.0898-0.042411-0.176-0.088204-0.26758-0.12891-0.20104-0.089352-0.40753-0.17172-0.61523-0.25195zm6.1855 5.2754v0.87891h0.51563c-0.0568-0.29807-0.12283-0.59203-0.20313-0.87891zm-2.6504 1.7578h-0.88476v0.87891h0.88476zm-0.88476 0.87891h-0.88282v0.88086h0.88282zm-7.9551 5.2773h-0.88281v1.7598h1.7676v-0.87891h-0.88476zm-0.88281 1.7598h-0.88282v-1.7598h-0.88476v1.7598h-0.88281v-0.87891h-0.88477v1.7578h-0.88281v-1.7578h-0.88477v1.7578h-0.88281v0.87891h0.88281v0.87891h-1.7676v-0.87891h-0.88281v0.87891h-0.88281v0.87891h1.7656v0.88086h0.88477v0.87891h0.88281v-1.7598h0.88477v-1.7578h0.88281v1.7578h0.88477v0.85742h0.74414l0.0156 0.02344h0.12305v-1.7598h1.7676zm-1.7676 4.3965v0.18164l0.88476 1.3086v-1.4902zm0.88476 0h0.88282v-0.88086h-0.88282zm-2.6523-0.88086h-0.88281v1.7598h0.71679v-0.90234h0.16602zm-0.88281 1.7598h-0.88477v0.87891h-1.7676v-1.7578h-1.7656v-0.88086h-0.88477v0.88086h-1.7695v-0.88086h0.88477v-0.87891h1.7695v-0.87891h0.88281v-0.87891h-0.88281v-0.87891h-0.88477v0.87891h-0.88476v-0.87891h0.88476v-0.87891h-1.7695v-0.88086h0.88477v-1.7578h-0.88477v0.87891h-0.88281v-0.87891h-0.88477v0.87891h-0.88281v0.87891h1.7676v1.7598h-1.7676v1.7578h0.88281v-0.87891h0.88477v1.7578h-1.7676v0.87891h1.7676v0.88086h-1.7676v0.87891h6.1875v6.1367h0.88281v-0.85938h0.88477v0.85938h0.88281v-1.7383h0.88477v0.87891h0.71679v-2.6387h-0.71679v0.87891h-0.88477v-0.87891h0.88477v-0.87891h0.71679v-0.88086h-0.71679zm-8.8398-8.793v-0.88086h-0.88281v0.88086zm0.88477 0h0.88281v-0.88086h-0.88281zm0.88281-0.88086h0.88477v-0.87891h-0.88477zm2.6543 4.3984h1.7656v0.87891h0.88477v-1.7578h0.88281v-0.88086h0.88477v-0.87891h-0.88477v-0.87891h-0.88281v0.87891h-3.5352v0.87891h2.6504v0.88086h-1.7656zm0-6.1562v0.87891h0.88281v-0.87891zm0 0.87891h-0.88477v0.87891h0.88477zm0 0.87891v0.88086h0.88281v-0.88086zm-3.5371-4.3965v0.87891h0.88281v-0.87891zm0.88281 0.87891v0.87891h0.88477v-0.87891zm-1.7676-8.793v4.3984h4.4219v-4.3984zm0.88477 0.87891h2.6523v2.6387h-2.6523zm22.096 1.4258v2.0938h1.7891c-0.0187-0.029406-0.0337-0.060611-0.0527-0.089844-0.17895-0.27531-0.37413-0.53668-0.57812-0.79102h-0.27539v-0.33203c-0.27336-0.31166-0.5699-0.60346-0.88282-0.88086zm-23.863 6.4883v0.87891h0.88281v-0.87891zm26.514 0v0.87891h-0.88281v0.88086h-0.88476v0.87891h-0.88282v0.87891h1.7676v-0.87891h0.88281v-0.87891h0.70508c4e-3 -0.12547 0.0215-0.24389 0.0215-0.37109 0-0.47495-0.0299-0.93638-0.0801-1.3887zm0 2.6387v1.7598h0.34766c0.15042-0.56164 0.24433-1.1523 0.30469-1.7598zm-2.6504 0.87891h-0.88476v0.88086h0.88476zm-0.88476 0.88086h-0.88282v1.7578h0.88282zm-0.88282 1.7578h-0.88476v0.88086h0.88476zm0 0.88086v1.7578h0.88282v-0.87891h0.88476v-0.87891zm1.7676 0h1.7676v-2.6387h-0.88476v0.87891h-0.88282zm0 0.87891v0.87891h0.375c0.18151-0.16846 0.3414-0.35475 0.50782-0.53516v-0.34375zm-0.88476-4.3984v-0.87891h-0.88282v0.87891zm-22.096-1.7578v0.87891h0.88477v-0.87891zm25.631 3.5176v0.17188c0.0223-0.05679 0.0432-0.11453 0.0645-0.17188zm-15.023 3.5176h1.7676v0.87891h-1.7676zm5.3008 0v0.87891h-1.7676v2.6387h2.6523v-0.88086h-1.7676v-0.87891h1.7676v-1.7578zm1.7676 0v0.87891h0.88671v-0.87891zm0.88671 0.87891v0.87891h0.88282v-0.87891zm0.88282 0.87891v0.87891h-0.88282v-0.87891h-0.88671v1.7598h0.88671v0.87891h-1.7695v0.87891h-0.88476v-0.87891h-2.6504v0.87891h-0.70118l2.4688 3.6523v-0.13281h0.88282v-0.88086h0.88476v0.88086h-0.88476v0.87891h1.7676v0.85938h2.6523v-1.7383h0.88476v-0.88086h-0.88476v-0.87891h-0.88281v-1.7598h0.88281v-0.87891h-0.88281v-0.87891h0.88281v-0.88086h1.7012l-0.75977-1.1152c0.34744-0.20068 0.67648-0.4171 0.99415-0.64258h-1.9356v0.87891zm1.7676 6.1562h0.88282v0.88086h-0.88282v1.7383h1.7676v-0.85938h0.88282v-0.87891h-0.88282v-0.88086h0.88282v-0.87891h-2.6504zm2.6504 1.7598v0.85938h0.88476v-0.85938zm-7.9551 0h-0.37891l0.37891 0.55859zm5.3047-6.1562v2.6387h2.6504v-0.82422l-1.2344-1.8145zm0.88282 0.87891h0.88476v0.87891h-0.88476zm-22.096 0.87891v4.3984h4.4219v-4.3984zm14.141 0h0.88476v1.7598h-0.88476zm3.5352 0h0.88671v1.7598h-0.88671zm-16.791 0.88086h2.6523v2.6387h-2.6523zm23.863 0.47656v0.40234h0.27344zm-18.561 1.2812h0.88477v0.88086h-0.88477zm11.488 0h0.88671v0.88086h-0.88671zm7.0723 0v0.88086h0.88281v1.7383h1.7676v-0.0059l-1.7793-2.6133z" color="#000000" color-rendering="auto" dominant-baseline="auto" image-rendering="auto" opacity="1" solid-color="#000000" stop-color="#000000" style="font-feature-settings:normal;font-variant-alternates:normal;font-variant-caps:normal;font-variant-east-asian:normal;font-variant-ligatures:normal;font-variant-numeric:normal;font-variant-position:normal;font-variation-settings:normal;inline-size:0;isolation:auto;mix-blend-mode:normal;shape-margin:0;shape-padding:0;text-decoration-color:#000000;text-decoration-line:none;text-decoration-style:solid;text-indent:0;text-orientation:mixed;text-transform:none;white-space:normal"/>
  <g transform="translate(-1.5007)" opacity="1">
   <path d="m173.21 3.0518e-7v29.68h-8.6v-1.8c-1.3067 1.4667-3.3067 2.2-6 2.2-1.92 0-3.6933-0.45333-5.32-1.36-1.6-0.93333-2.88-2.2667-3.84-4-0.93333-1.7333-1.4-3.7333-1.4-6s0.46667-4.2533 1.4-5.96c0.96-1.7333 2.24-3.0533 3.84-3.96 1.6267-0.93333 3.4-1.4 5.32-1.4 2.4267 0 4.28 0.62667 5.56 1.88v-9.28zm-12.44 23.04c1.04 0 1.8933-0.37333 2.56-1.12 0.66667-0.77333 1-1.84 1-3.2s-0.33333-2.4133-1-3.16-1.52-1.12-2.56-1.12-1.8933 0.37333-2.56 1.12-1 1.8-1 3.16 0.33333 2.4267 1 3.2c0.66667 0.74667 1.52 1.12 2.56 1.12z" color="#000000" color-rendering="auto" dominant-baseline="auto" image-rendering="auto" solid-color="#000000" stop-color="#000000" style="font-feature-settings:normal;font-variant-alternates:normal;font-variant-caps:normal;font-variant-east-asian:normal;font-variant-ligatures:normal;font-variant-numeric:normal;font-variant-position:normal;font-variation-settings:normal;inline-size:0;isolation:auto;mix-blend-mode:normal;shape-margin:0;shape-padding:0;text-decoration-color:#000000;text-decoration-line:none;text-decoration-style:solid;text-indent:0;text-orientation:mixed;text-transform:none;white-space:normal"/>
   <path d="m163.67-0.5v8.9121c-1.3276-0.93975-2.9688-1.5117-5.0606-1.5117-2.001 0-3.868 0.4912-5.5684 1.4668-1.6805 0.95287-3.0306 2.3472-4.0293 4.1504v2e-3h-2e-3c-0.97805 1.7884-1.4609 3.8659-1.4609 6.2012s0.48447 4.4229 1.4609 6.2363v2e-3l2e-3 0.0039c0.99861 1.803 2.3466 3.2102 4.0254 4.1895l8e-3 4e-3c1.6997 0.9474 3.5657 1.4238 5.5644 1.4238 2.3297 0 4.11-0.67438 5.5-1.7852v1.3848h9.5996v-30.68h-0.5zm1 1h8.0391v28.68h-7.5996v-2.6133l-0.87305 0.98047c-1.1932 1.3393-3.0244 2.0332-5.627 2.0332-1.8413 0-3.5226-0.43094-5.0762-1.2969-1.516-0.88641-2.7251-2.1422-3.6445-3.8008v-2e-3c-4.6e-4 -8.35e-4 -1e-3 -0.0011-2e-3 -2e-3 -0.88885-1.6524-1.3379-3.5614-1.3379-5.7578 0-2.1971 0.45006-4.0943 1.3379-5.7188l2e-3 -2e-3c0.92069-1.6614 2.1288-2.9056 3.6465-3.7656h4e-3c1.553-0.89107 3.2313-1.334 5.0703-1.334 2.3406 0 4.0438 0.5935 5.2109 1.7363l0.84961 0.83203zm-3.9004 13.439c-1.1596 0-2.1809 0.44409-2.9336 1.2871-0.76711 0.85917-1.127 2.0524-1.127 3.4941s0.35978 2.6423 1.1211 3.5254l4e-3 0.0039 2e-3 0.0039c0.7527 0.84302 1.7739 1.2852 2.9336 1.2852s2.1809-0.44214 2.9336-1.2852l4e-3 -0.0078c0.76132-0.88312 1.123-2.0837 1.123-3.5254s-0.35984-2.635-1.127-3.4941c-0.7527-0.84302-1.7739-1.2871-2.9336-1.2871zm0 1c0.92035 0 1.6069 0.30281 2.1875 0.95312 0.56623 0.63417 0.87305 1.5498 0.87305 2.8281 0 1.2771-0.30599 2.2077-0.87695 2.8711-0.5798 0.64727-1.2653 0.94726-2.1836 0.94726-0.91721 0-1.6023-0.29957-2.1816-0.94531l-2e-3 -2e-3c-0.57096-0.66342-0.87695-1.594-0.87695-2.8711 0-1.2783 0.30682-2.194 0.87304-2.8281 0.58064-0.65031 1.2672-0.95312 2.1875-0.95312z" color="#000000" color-rendering="auto" dominant-baseline="auto" image-rendering="auto" solid-color="#000000" stop-color="#000000" style="font-feature-settings:normal;font-variant-alternates:normal;font-variant-caps:normal;font-variant-east-asian:normal;font-variant-ligatures:normal;font-variant-numeric:normal;font-variant-position:normal;font-variation-settings:normal;inline-size:0;isolation:auto;mix-blend-mode:normal;shape-margin:0;shape-padding:0;text-decoration-color:#000000;text-decoration-line:none;text-decoration-style:solid;text-indent:0;text-orientation:mixed;text-transform:none;white-space:normal"/>
  </g>
  <path transform="translate(-27.825,7.652)" d="m214.4-0.75195c-2.4926 0-4.7587 0.49378-6.7793 1.4902l-2e-3 0.001953h-2e-3c-1.9924 0.99618-3.5754 2.4087-4.7168 4.2168-1.1457 1.7883-1.7188 3.8413-1.7188 6.1113s0.57284 4.3329 1.7168 6.1465v2e-3h2e-3c1.1414 1.7818 2.723 3.1922 4.7129 4.2148l8e-3 4e-3c2.0206 0.99645 4.2867 1.4922 6.7793 1.4922 2.5186 0 4.789-0.49409 6.7852-1.4922v-2e-3h2e-3c2.0166-1.0221 3.6007-2.434 4.7168-4.2188l2e-3 -2e-3c1.143-1.813 1.7148-3.8755 1.7148-6.1445 0-2.2669-0.57236-4.3169-1.7148-6.1035v-0.00195c-1.1154-1.812-2.7019-3.2262-4.7207-4.2227-1.9962-0.9981-4.2666-1.4922-6.7852-1.4922zm0 8.0391c0.92034 0 1.6069 0.30281 2.1875 0.95312 0.56622 0.63417 0.87304 1.5498 0.87304 2.8281 0 1.2771-0.30599 2.2077-0.87695 2.8711-0.5798 0.64726-1.2653 0.94727-2.1836 0.94727-0.91721 0-1.6003-0.29958-2.1797-0.94531l-2e-3 -2e-3c-0.57096-0.66342-0.87696-1.594-0.87696-2.8711 0-1.2783 0.30683-2.194 0.87305-2.8281 0.58064-0.65031 1.2652-0.95312 2.1856-0.95312z" color="#000000" color-rendering="auto" dominant-baseline="auto" image-rendering="auto" opacity="1" solid-color="#000000" stop-color="#000000" style="font-feature-settings:normal;font-variant-alternates:normal;font-variant-caps:normal;font-variant-east-asian:normal;font-variant-ligatures:normal;font-variant-numeric:normal;font-variant-position:normal;font-variation-settings:normal;inline-size:0;isolation:auto;mix-blend-mode:normal;shape-margin:0;shape-padding:0;text-decoration-color:#000000;text-decoration-line:none;text-decoration-style:solid;text-indent:0;text-orientation:mixed;text-transform:none;white-space:normal"/>
 </g>
</svg>
